<mxfile host="app.diagrams.net" agent="Mozilla/5.0 (Windows NT 10.0; Win64; x64; rv:143.0) Gecko/20100101 Firefox/143.0" version="28.2.3">
  <diagram name="Page-1" id="wG_KZX3tNf6ALdJyU_2w">
    <mxGraphModel dx="1426" dy="826" grid="1" gridSize="10" guides="1" tooltips="1" connect="1" arrows="1" fold="1" page="1" pageScale="1" pageWidth="850" pageHeight="1100" math="0" shadow="0">
      <root>
        <mxCell id="0" />
        <mxCell id="1" parent="0" />
        <mxCell id="fRBNY-h8TdLfMCNx-BRs-1" value="Cliente" style="html=1;whiteSpace=wrap;" parent="1" vertex="1">
          <mxGeometry x="120" y="110" width="110" height="50" as="geometry" />
        </mxCell>
        <mxCell id="fRBNY-h8TdLfMCNx-BRs-2" value="&lt;div&gt;Peer B&lt;/div&gt;(main)" style="html=1;whiteSpace=wrap;" parent="1" vertex="1">
          <mxGeometry x="400" y="110" width="110" height="50" as="geometry" />
        </mxCell>
        <mxCell id="fRBNY-h8TdLfMCNx-BRs-3" value="&lt;div&gt;Peer C&lt;/div&gt;(amigo, dueÃ±o del archivo)" style="html=1;whiteSpace=wrap;" parent="1" vertex="1">
          <mxGeometry x="680" y="110" width="110" height="50" as="geometry" />
        </mxCell>
        <mxCell id="fRBNY-h8TdLfMCNx-BRs-7" value="" style="endArrow=none;html=1;rounded=0;entryX=0.5;entryY=1;entryDx=0;entryDy=0;" parent="1" edge="1">
          <mxGeometry width="50" height="50" relative="1" as="geometry">
            <mxPoint x="175" y="640" as="sourcePoint" />
            <mxPoint x="174.5" y="160" as="targetPoint" />
          </mxGeometry>
        </mxCell>
        <mxCell id="fRBNY-h8TdLfMCNx-BRs-10" value="" style="endArrow=none;html=1;rounded=0;entryX=0.5;entryY=1;entryDx=0;entryDy=0;" parent="1" target="fRBNY-h8TdLfMCNx-BRs-2" edge="1">
          <mxGeometry width="50" height="50" relative="1" as="geometry">
            <mxPoint x="455" y="380" as="sourcePoint" />
            <mxPoint x="310" y="270" as="targetPoint" />
          </mxGeometry>
        </mxCell>
        <mxCell id="fRBNY-h8TdLfMCNx-BRs-11" value="" style="endArrow=none;html=1;rounded=0;entryX=0.5;entryY=1;entryDx=0;entryDy=0;" parent="1" edge="1">
          <mxGeometry width="50" height="50" relative="1" as="geometry">
            <mxPoint x="740" y="640" as="sourcePoint" />
            <mxPoint x="740" y="160" as="targetPoint" />
          </mxGeometry>
        </mxCell>
        <mxCell id="fRBNY-h8TdLfMCNx-BRs-12" value="" style="endArrow=classic;html=1;rounded=0;fillColor=#008a00;strokeColor=#005700;" parent="1" edge="1">
          <mxGeometry width="50" height="50" relative="1" as="geometry">
            <mxPoint x="180" y="240" as="sourcePoint" />
            <mxPoint x="450" y="240" as="targetPoint" />
          </mxGeometry>
        </mxCell>
        <mxCell id="fRBNY-h8TdLfMCNx-BRs-15" value="REST: registrar peer" style="edgeLabel;html=1;align=center;verticalAlign=middle;resizable=0;points=[];" parent="fRBNY-h8TdLfMCNx-BRs-12" vertex="1" connectable="0">
          <mxGeometry x="0.0519" y="2" relative="1" as="geometry">
            <mxPoint as="offset" />
          </mxGeometry>
        </mxCell>
        <mxCell id="fRBNY-h8TdLfMCNx-BRs-13" value="" style="endArrow=classic;html=1;rounded=0;fillColor=#60a917;strokeColor=#2D7600;" parent="1" edge="1">
          <mxGeometry width="50" height="50" relative="1" as="geometry">
            <mxPoint x="450" y="320" as="sourcePoint" />
            <mxPoint x="180" y="320" as="targetPoint" />
          </mxGeometry>
        </mxCell>
        <mxCell id="fRBNY-h8TdLfMCNx-BRs-16" value="Respuesta: Confirmacion" style="edgeLabel;html=1;align=center;verticalAlign=middle;resizable=0;points=[];" parent="fRBNY-h8TdLfMCNx-BRs-13" vertex="1" connectable="0">
          <mxGeometry x="-0.0519" y="1" relative="1" as="geometry">
            <mxPoint as="offset" />
          </mxGeometry>
        </mxCell>
        <mxCell id="fRBNY-h8TdLfMCNx-BRs-14" value="" style="endArrow=classic;html=1;rounded=0;fillColor=#60a917;strokeColor=#2D7600;" parent="1" edge="1">
          <mxGeometry width="50" height="50" relative="1" as="geometry">
            <mxPoint x="180" y="400" as="sourcePoint" />
            <mxPoint x="730" y="400" as="targetPoint" />
          </mxGeometry>
        </mxCell>
        <mxCell id="fRBNY-h8TdLfMCNx-BRs-18" value="REST: / locale file" style="edgeLabel;html=1;align=center;verticalAlign=middle;resizable=0;points=[];" parent="fRBNY-h8TdLfMCNx-BRs-14" vertex="1" connectable="0">
          <mxGeometry x="-0.0255" y="-4" relative="1" as="geometry">
            <mxPoint as="offset" />
          </mxGeometry>
        </mxCell>
        <mxCell id="fRBNY-h8TdLfMCNx-BRs-19" value="" style="endArrow=classic;html=1;rounded=0;fillColor=#60a917;strokeColor=#2D7600;" parent="1" edge="1">
          <mxGeometry width="50" height="50" relative="1" as="geometry">
            <mxPoint x="180" y="560" as="sourcePoint" />
            <mxPoint x="730" y="560" as="targetPoint" />
          </mxGeometry>
        </mxCell>
        <mxCell id="fRBNY-h8TdLfMCNx-BRs-21" value="gRPC: DummyDownload" style="edgeLabel;html=1;align=center;verticalAlign=middle;resizable=0;points=[];" parent="fRBNY-h8TdLfMCNx-BRs-19" vertex="1" connectable="0">
          <mxGeometry x="-0.0545" relative="1" as="geometry">
            <mxPoint as="offset" />
          </mxGeometry>
        </mxCell>
        <mxCell id="fRBNY-h8TdLfMCNx-BRs-22" value="" style="endArrow=classic;html=1;rounded=0;fillColor=#60a917;strokeColor=#2D7600;" parent="1" edge="1">
          <mxGeometry width="50" height="50" relative="1" as="geometry">
            <mxPoint x="730" y="480" as="sourcePoint" />
            <mxPoint x="180" y="480" as="targetPoint" />
          </mxGeometry>
        </mxCell>
        <mxCell id="fRBNY-h8TdLfMCNx-BRs-23" value="peer c tiene el archivo" style="edgeLabel;html=1;align=center;verticalAlign=middle;resizable=0;points=[];" parent="fRBNY-h8TdLfMCNx-BRs-22" vertex="1" connectable="0">
          <mxGeometry x="-0.0545" relative="1" as="geometry">
            <mxPoint as="offset" />
          </mxGeometry>
        </mxCell>
        <mxCell id="fRBNY-h8TdLfMCNx-BRs-24" value="" style="endArrow=classic;html=1;rounded=0;fillColor=#60a917;strokeColor=#2D7600;" parent="1" edge="1">
          <mxGeometry width="50" height="50" relative="1" as="geometry">
            <mxPoint x="730" y="640" as="sourcePoint" />
            <mxPoint x="180" y="640" as="targetPoint" />
          </mxGeometry>
        </mxCell>
        <mxCell id="fRBNY-h8TdLfMCNx-BRs-25" value="stream FileChunk" style="edgeLabel;html=1;align=center;verticalAlign=middle;resizable=0;points=[];" parent="fRBNY-h8TdLfMCNx-BRs-24" vertex="1" connectable="0">
          <mxGeometry x="-0.0545" relative="1" as="geometry">
            <mxPoint as="offset" />
          </mxGeometry>
        </mxCell>
        <mxCell id="fRBNY-h8TdLfMCNx-BRs-26" value="" style="endArrow=none;html=1;rounded=0;entryX=0.5;entryY=1;entryDx=0;entryDy=0;" parent="1" edge="1">
          <mxGeometry width="50" height="50" relative="1" as="geometry">
            <mxPoint x="455" y="470" as="sourcePoint" />
            <mxPoint x="454.5" y="420" as="targetPoint" />
          </mxGeometry>
        </mxCell>
        <mxCell id="fRBNY-h8TdLfMCNx-BRs-27" value="" style="endArrow=none;html=1;rounded=0;entryX=0.5;entryY=1;entryDx=0;entryDy=0;" parent="1" edge="1">
          <mxGeometry width="50" height="50" relative="1" as="geometry">
            <mxPoint x="455" y="550" as="sourcePoint" />
            <mxPoint x="454.5" y="500" as="targetPoint" />
          </mxGeometry>
        </mxCell>
        <mxCell id="fRBNY-h8TdLfMCNx-BRs-28" value="" style="endArrow=none;html=1;rounded=0;entryX=0.5;entryY=1;entryDx=0;entryDy=0;" parent="1" edge="1">
          <mxGeometry width="50" height="50" relative="1" as="geometry">
            <mxPoint x="455" y="630" as="sourcePoint" />
            <mxPoint x="454.5" y="580" as="targetPoint" />
          </mxGeometry>
        </mxCell>
      </root>
    </mxGraphModel>
  </diagram>
</mxfile>
